<svg width="24" height="24" viewBox="0 0 24 24" fill="none" xmlns="http://www.w3.org/2000/svg">
<path d="M15.75 21C15.75 21.1989 15.671 21.3897 15.5303 21.5303C15.3897 21.671 15.1989 21.75 15 21.75H9C8.80109 21.75 8.61032 21.671 8.46967 21.5303C8.32902 21.3897 8.25 21.1989 8.25 21C8.25 20.8011 8.32902 20.6103 8.46967 20.4697C8.61032 20.329 8.80109 20.25 9 20.25H15C15.1989 20.25 15.3897 20.329 15.5303 20.4697C15.671 20.6103 15.75 20.8011 15.75 21ZM21.75 6V16.5C21.75 17.0967 21.5129 17.669 21.091 18.091C20.669 18.5129 20.0967 18.75 19.5 18.75H4.5C3.90326 18.75 3.33097 18.5129 2.90901 18.091C2.48705 17.669 2.25 17.0967 2.25 16.5V6C2.25 5.40326 2.48705 4.83097 2.90901 4.40901C3.33097 3.98705 3.90326 3.75 4.5 3.75H19.5C20.0967 3.75 20.669 3.98705 21.091 4.40901C21.5129 4.83097 21.75 5.40326 21.75 6ZM15.375 11.25C15.375 11.1238 15.3431 10.9996 15.2823 10.889C15.2215 10.7784 15.1337 10.6849 15.0272 10.6172L10.9022 7.99219C10.7888 7.92015 10.6582 7.87989 10.5239 7.87561C10.3896 7.87133 10.2567 7.90319 10.139 7.96786C10.0212 8.03252 9.923 8.12762 9.85458 8.24322C9.78616 8.35882 9.75004 8.49067 9.75 8.625V13.875C9.75004 14.0093 9.78616 14.1412 9.85458 14.2568C9.923 14.3724 10.0212 14.4675 10.139 14.5321C10.2567 14.5968 10.3896 14.6287 10.5239 14.6244C10.6582 14.6201 10.7888 14.5798 10.9022 14.5078L15.0272 11.8828C15.1337 11.8151 15.2215 11.7216 15.2823 11.611C15.3431 11.5004 15.375 11.3762 15.375 11.25Z" fill="#412CAB"/>
</svg>
