<svg width="24" height="24" viewBox="0 0 24 24" fill="none" xmlns="http://www.w3.org/2000/svg">
<path d="M19.5 3.75H4.5C4.10218 3.75 3.72064 3.90804 3.43934 4.18934C3.15804 4.47064 3 4.85218 3 5.25V10.7597C3 19.1616 10.1081 21.9478 11.5312 22.4203C11.8351 22.5243 12.1649 22.5243 12.4688 22.4203C13.8938 21.9469 21 19.1606 21 10.7587V5.25C21 4.85218 20.842 4.47064 20.5607 4.18934C20.2794 3.90804 19.8978 3.75 19.5 3.75ZM19.5 10.7616C19.5 10.9275 19.5 11.0897 19.4897 11.25H12.75V5.25H19.5V10.7616ZM4.5 5.25H11.25V11.25H4.51031C4.50375 11.0897 4.5 10.9275 4.5 10.7616V5.25ZM4.66313 12.75H11.25V20.7113C9.405 19.9275 5.50594 17.7113 4.66313 12.75ZM12.75 20.7103V12.75H19.3369C18.4941 17.7084 14.5988 19.9256 12.75 20.7103Z" fill="#434343"/>
</svg>
