<svg width="81" height="28" viewBox="0 0 81 28" fill="none" xmlns="http://www.w3.org/2000/svg">
<path d="M8.81875 4.368H7.16372C5.33717 4.368 4.60933 6.17685 4.60933 7.52883H8.65186V11.1978H4.60933V21.6454H0.117126V7.52883C0.117126 2.95541 2.47681 0.694336 6.96902 0.694336H8.82338V4.36333L8.81875 4.368Z" fill="white"/>
<path d="M15.4574 15.7432C15.7402 17.2677 16.6627 18.256 18.4337 18.256C19.8662 18.256 20.7099 17.7199 21.9987 16.5357L24.7802 19.0206C22.759 21.3096 20.6264 22.0695 18.3224 22.0695C13.158 22.0695 10.7148 19.0485 10.7148 14.559C10.7148 10.0695 13.2692 7.10449 17.7893 7.10449C23.153 7.10449 25.0908 10.2933 25.0908 15.7432H15.462H15.4574ZM20.7099 12.918C20.3158 11.6173 19.5045 10.9134 18.0999 10.9134C16.6952 10.9134 15.8561 11.6779 15.5177 12.918H20.7099Z" fill="white"/>
<path d="M31.5162 15.7432C31.799 17.2677 32.7216 18.256 34.4925 18.256C35.925 18.256 36.7687 17.7199 38.0575 16.5357L40.8391 19.0206C38.8178 21.3096 36.6853 22.0695 34.3812 22.0695C29.2168 22.0695 26.7737 19.0485 26.7737 14.559C26.7737 10.0695 29.3281 7.10449 33.8481 7.10449C39.2119 7.10449 41.1497 10.2933 41.1497 15.7432H31.5209H31.5162ZM36.7687 12.918C36.3747 11.6173 35.5634 10.9134 34.1587 10.9134C32.754 10.9134 31.9149 11.6779 31.5765 12.918H36.7687Z" fill="white"/>
<path d="M43.8571 0.470703H48.3493V21.6455H47.7883C45.4286 21.6455 43.8571 20.0651 43.8571 17.6921V0.470703Z" fill="white"/>
<path d="M51.0566 21.6455V0.470703H55.5488V12.3588H57.5979L60.041 7.52898H65.0942L61.5292 14.5873L65.0942 21.6455H60.041L57.2039 16.0278H55.5488V21.6455H51.0566Z" fill="white"/>
<path d="M81 7.52908V20.4894C81 24.979 79.0344 27.9999 73.5315 27.9999C71.1162 27.9999 68.8446 27.2354 66.8234 24.951L69.6049 22.4661C70.9262 23.6503 71.909 24.1864 73.564 24.1864C75.7243 24.1864 76.3455 23.0582 76.4846 21.3612H73.9024C68.5387 21.3612 67.1062 18.0559 67.1062 14.8671V7.52441H71.5984V14.8391C71.5984 16.5314 72.7481 17.6922 74.5746 17.6922H76.5124V7.52908H81.0046H81Z" fill="white"/>
</svg>
